<svg xmlns="http://www.w3.org/2000/svg" width="158.1" height="60.3">
  <polygon points="77.61,9.209 85.555,7.451 85.555,14.2 87.943,13.708 87.943,20.246 85.555,20.808 85.555,44.357 77.61,46.115 77.61,22.566 75.29,23.058 75.29,16.449 77.61,15.958"/>
  <polygon points="12.583,41.055 0,22.425 10.474,20.176 16.801,29.595 22.777,17.434 33.251,15.184 21.089,39.156 21.089,58.418 12.583,60.316"/>
  <path d="M52 11.1l8-1.7v10.4l6.4-1.4c5.8-1.2 8 2.2 8 6.8v21.6l-8 1.8V29c0-2.5-1-3.8-3.3-3.3l-3.1.7V50l-8 1.7V11.1z"/>
  <path d="M36.3 25L50 22v30l-8 1.8v-2.5c-2.4 3.1-4 4.2-7.2 4.9C28.2 57.6 24 51 24 44.4c0-11.6 6-18.1 12.3-19.4zm1.9 6c-4.5 1-5.8 5.3-5.8 11.5 0 4.7 2.3 6.8 4.7 6.4 2-.3 4-2 5-5V30.2l-4 .9z"/>
  <path d="M89 13.4l21.3-4.6c0 11-11.4 20.4-13 26.3l13-2.8v6.6l-22.1 4.9c0-10 9-19 13.5-26.6L89 20v-6.6z"/>
  <path d="M122.1 12.4c2.5-.5 4 1.4 4.3 3.6l-8.8 2c.6-3.4 2.3-5 4.5-5.6zm1-7c-6.7 0-13 7.5-13.6 16.7-.8 9.5 3.8 15.2 10.5 15.2 6.8 0 12-5.7 13.5-13.1l-7.5 1.5c-.7 2.6-2.3 4.2-4.3 4.5-2 .5-4.2-.8-4.2-6l16.3-3.6c.4-9.3-3.3-15.3-10.7-15.3z"/>
  <path d="M146.4 7.2c2.4-.6 3.8 1.3 4.2 3.5l-8.7 1.9c.5-3.4 2.3-5 4.5-5.4zm1-7.2c-6.7 0-13 7.5-13.8 16.9-.7 9.4 4 15.2 10.7 15.2 6.8 0 11.8-5.8 13.5-13.3l-7.5 1.7c-.8 2.4-2.4 4-4.4 4.5-2 .4-4.2-1-4.2-6.2l16.3-3.5C158.5 6 154.8 0 147.3 0z"/>
</svg>